# xmcd
#
# Track frame offsets: 
#        150
#        17106
#        40212
#        69319
#        99089
#        118223
#        144524
#        158109
#        176334
#        192531
#        226965
#        262395
#        310159
#
# Disc length: 4285 seconds
#
# Revision: 0
# Processed by: cddbd v1.5.2PL0 Copyright (c) Steve Scherf et al.
# Submitted via: ExactAudioCopy v1.3
#
DISCID=b110bb0d
DTITLE=Ten Years After - Naturally Live
DYEAR=2019
DGENRE=Blues Rock
TTITLE0=Land Of The Vandals
TTITLE1=One Of These Days
TTITLE2=Hear Me Calling
TTITLE3=I'd Love To Change The World
TTITLE4=Silverspoon Lady
TTITLE5=Last Night Of The Bottle
TTITLE6=Portable People
TTITLE7=Don't Want You Woman
TTITLE8=Losing The Dogs
TTITLE9=50000 Miles Beneath My Brain
TTITLE10=Good Morning Little Schoolgirl
TTITLE11=I'm Going Home
TTITLE12=Ric Lee Introducing Tya
EXTD=
EXTT0=
EXTT1=
EXTT2=
EXTT3=
EXTT4=
EXTT5=
EXTT6=
EXTT7=
EXTT8=
EXTT9=
EXTT10=
EXTT11=
EXTT12=
PLAYORDER=
